<svg version="1.1" id="Layer_1" xmlns="http://www.w3.org/2000/svg" xmlns:xlink="http://www.w3.org/1999/xlink" x="0px" y="0px"
	 width="100%" viewBox="0 0 2000 1112" enable-background="new 0 0 2000 1112" xml:space="preserve">
<path fill="#FFFFFF" opacity="1.000000" stroke="none" 
	d="
M1510.000000,1113.000000 
	C1006.666809,1113.000000 503.833618,1113.000000 1.000337,1113.000000 
	C1.000225,742.333618 1.000225,371.667175 1.000112,1.000586 
	C667.666199,1.000391 1334.332397,1.000391 2000.999023,1.000195 
	C2000.999268,371.666107 2000.999268,742.332214 2000.999634,1112.999146 
	C1837.500000,1113.000000 1674.000000,1113.000000 1510.000000,1113.000000 
M1242.000000,559.500000 
	C1242.000000,484.675323 1242.000000,409.850677 1242.000000,335.026001 
	C1242.000000,282.865112 1242.045532,230.704163 1241.968872,178.543381 
	C1241.949097,165.077667 1231.995483,154.985046 1218.357666,154.992599 
	C1180.028564,155.013809 1141.699585,154.993088 1103.370483,155.021713 
	C1101.577271,155.023041 1099.684326,155.027222 1098.007080,155.561417 
	C1085.501465,159.544388 1080.088745,166.782471 1080.076538,181.384750 
	C1079.951660,331.701355 1079.989380,482.018066 1080.014893,632.334778 
	C1080.017700,649.408081 1087.333618,661.910583 1102.988892,669.570618 
	C1128.818359,682.208618 1154.484497,695.180603 1180.203735,708.043457 
	C1200.481445,718.184814 1220.735352,728.373901 1241.000000,738.541870 
	C1241.000000,739.811096 1241.000000,740.806274 1241.000000,741.801392 
	C1241.000000,806.960815 1241.121948,872.120789 1240.876465,937.279236 
	C1240.836914,947.779663 1252.378174,958.298950 1261.585571,958.194519 
	C1301.576050,957.740906 1341.576416,957.784607 1381.568726,958.143860 
	C1392.238525,958.239746 1402.261108,948.204834 1402.139526,937.656860 
	C1401.759766,904.664856 1402.083496,871.665466 1401.960693,838.669556 
	C1401.908447,824.628601 1395.269897,814.268921 1382.817627,808.012268 
	C1337.412354,785.197937 1291.932373,762.531860 1246.437622,739.896240 
	C1243.160156,738.265564 1241.866089,736.410706 1241.878296,732.480591 
	C1242.055298,675.154175 1242.000000,617.826965 1242.000000,559.500000 
M1724.000000,896.500000 
	C1724.000000,845.500671 1724.062378,794.501099 1723.887573,743.502380 
	C1723.872803,739.190002 1725.376099,737.188843 1729.060669,735.360352 
	C1774.141113,712.988281 1819.200806,690.572876 1864.129639,667.898438 
	C1877.042847,661.381470 1883.939453,650.350342 1883.947510,635.796936 
	C1884.032349,483.303162 1884.000977,330.809357 1883.998413,178.315552 
	C1883.998291,165.104111 1873.961792,155.004562 1860.826538,155.002335 
	C1822.161377,154.995789 1783.494507,155.209656 1744.832397,154.865677 
	C1733.956421,154.768906 1722.787842,167.206436 1722.801636,176.801559 
	C1723.069458,361.627014 1722.984131,546.452942 1723.100952,731.278687 
	C1723.103516,735.472473 1721.988159,737.625793 1718.131226,739.538574 
	C1673.043213,761.899841 1628.055542,784.463440 1583.052979,806.997009 
	C1570.598633,813.233032 1562.467529,823.240356 1562.206543,837.165405 
	C1561.572632,870.985535 1561.966675,904.825562 1562.020386,938.657410 
	C1562.036499,948.800781 1573.568970,958.194946 1581.964355,958.133240 
	C1622.293823,957.836670 1662.626831,958.009155 1702.958496,957.969177 
	C1704.724976,957.967407 1706.547485,957.717102 1708.248169,957.241028 
	C1719.603516,954.062195 1723.476807,945.204895 1723.896973,933.994690 
	C1724.352173,921.845520 1724.000000,909.666199 1724.000000,896.500000 
M746.936157,410.624542 
	C754.497314,425.805176 761.969177,441.031158 769.645630,456.153290 
	C776.875916,470.396545 788.900513,476.942047 804.603149,476.978668 
	C835.602661,477.050995 866.602478,477.002960 897.602173,476.998718 
	C911.440857,476.996796 920.995789,467.518311 920.997925,453.779327 
	C921.003906,415.446381 920.757385,377.111084 921.133057,338.781830 
	C921.262451,325.574982 910.295715,314.821045 897.387085,314.876068 
	C833.555603,315.148254 769.722290,315.000000 705.889648,315.000000 
	C704.065430,315.000000 702.241211,315.000000 700.476257,315.000000 
	C676.904419,267.808624 653.547729,220.778763 629.903442,173.893936 
	C623.741028,161.674438 613.311279,155.053543 599.481079,155.046814 
	C446.482666,154.972397 293.484131,155.081085 140.486130,154.829346 
	C129.533722,154.811340 117.698212,166.518555 117.824570,177.392166 
	C118.273842,216.053192 118.304382,254.726578 117.806877,293.386444 
	C117.665207,304.395264 129.545364,316.204407 140.765152,316.188232 
	C325.096191,315.923187 509.427734,316.000000 693.759155,316.000000 
	C695.734253,316.000000 697.709351,316.000000 699.500366,316.000000 
	C715.279053,347.557587 730.889526,378.778809 746.936157,410.624542 
M618.993835,951.529297 
	C622.679199,947.255188 627.405090,943.510010 629.888306,938.624817 
	C653.610413,891.955261 676.952942,845.092834 700.547607,798.000000 
	C702.171326,798.000000 703.995422,798.000000 705.819519,798.000000 
	C769.980957,798.000000 834.142456,798.007019 898.303894,797.994080 
	C911.290955,797.991455 920.979675,788.456848 920.989319,775.614197 
	C921.018738,736.450745 921.048279,697.287048 920.908813,658.124084 
	C920.897583,654.972107 920.190735,651.523926 918.781006,648.731384 
	C914.490112,640.231384 907.128235,636.070068 897.704285,636.038452 
	C867.040466,635.935730 836.376099,636.005005 805.711914,635.998047 
	C788.600220,635.994141 776.224976,643.311401 768.492065,658.898865 
	C746.532410,703.163330 724.229431,747.257568 702.309631,791.541565 
	C700.278137,795.645874 698.253906,797.116272 693.634094,797.112915 
	C509.482452,796.980347 325.330688,797.052551 141.179138,796.881958 
	C128.873489,796.870544 117.607170,808.686157 117.781197,820.212280 
	C118.359795,858.533752 118.280182,896.872742 117.830986,935.197693 
	C117.694435,946.847290 129.166000,958.177185 140.798645,958.158936 
	C293.285889,957.919983 445.773621,957.979980 598.261169,958.060425 
	C605.718018,958.064331 612.396790,956.315613 618.993835,951.529297 
M1401.000000,342.500000 
	C1401.000000,403.818634 1401.000000,465.137238 1401.000000,526.455872 
	C1401.000000,588.774292 1400.789795,651.093933 1401.136719,713.410461 
	C1401.232422,730.613770 1409.526611,738.507385 1425.219116,738.782166 
	C1463.364990,739.450073 1501.532471,739.226318 1539.686890,738.875916 
	C1552.926880,738.754395 1563.076782,729.710022 1563.068359,715.238098 
	C1562.963745,536.280884 1562.988403,357.323669 1563.025757,178.366425 
	C1563.028320,166.143402 1553.277222,154.984772 1540.288940,154.992111 
	C1501.464844,155.014053 1462.640869,154.993423 1423.816772,155.023102 
	C1422.194702,155.024353 1420.519897,155.163971 1418.959351,155.577515 
	C1406.928711,158.765488 1401.116455,168.570831 1401.077026,180.538712 
	C1400.900024,234.191971 1401.000000,287.846161 1401.000000,342.500000 
M692.912659,632.578674 
	C698.625427,627.465637 701.080261,621.118530 701.055969,613.418884 
	C700.933838,574.756836 701.008423,536.094238 700.995300,497.431824 
	C700.990967,484.712341 689.712524,475.873260 679.603088,475.882385 
	C499.789703,476.044495 319.976074,476.059662 140.162781,475.849945 
	C129.512634,475.837555 117.718895,487.487244 117.836082,498.211639 
	C118.254845,536.536133 118.444527,574.876160 117.742943,613.192444 
	C117.517509,625.504211 129.700348,637.252869 141.569672,637.230774 
	C320.382690,636.897888 499.196503,636.985046 678.010071,637.073242 
	C683.310974,637.075867 688.018555,636.073547 692.912659,632.578674 
z"/>
<path fill="#00BFB6" opacity="1.000000" stroke="none" 
	d="
M1242.000000,560.000000 
	C1242.000000,617.826965 1242.055298,675.154175 1241.878296,732.480591 
	C1241.866089,736.410706 1243.160156,738.265564 1246.437622,739.896240 
	C1291.932373,762.531860 1337.412354,785.197937 1382.817627,808.012268 
	C1395.269897,814.268921 1401.908447,824.628601 1401.960693,838.669556 
	C1402.083496,871.665466 1401.759766,904.664856 1402.139526,937.656860 
	C1402.261108,948.204834 1392.238525,958.239746 1381.568726,958.143860 
	C1341.576416,957.784607 1301.576050,957.740906 1261.585571,958.194519 
	C1252.378174,958.298950 1240.836914,947.779663 1240.876465,937.279236 
	C1241.121948,872.120789 1241.000000,806.960815 1241.000000,741.801392 
	C1241.000000,740.806274 1241.000000,739.811096 1241.000000,738.541870 
	C1220.735352,728.373901 1200.481445,718.184814 1180.203735,708.043457 
	C1154.484497,695.180603 1128.818359,682.208618 1102.988892,669.570618 
	C1087.333618,661.910583 1080.017700,649.408081 1080.014893,632.334778 
	C1079.989380,482.018066 1079.951660,331.701355 1080.076538,181.384750 
	C1080.088745,166.782471 1085.501465,159.544388 1098.007080,155.561417 
	C1099.684326,155.027222 1101.577271,155.023041 1103.370483,155.021713 
	C1141.699585,154.993088 1180.028564,155.013809 1218.357666,154.992599 
	C1231.995483,154.985046 1241.949097,165.077667 1241.968872,178.543381 
	C1242.045532,230.704163 1242.000000,282.865112 1242.000000,335.026001 
	C1242.000000,409.850677 1242.000000,484.675323 1242.000000,560.000000 
z"/>
<path fill="#00BFB6" opacity="1.000000" stroke="none" 
	d="
M1724.000000,897.000000 
	C1724.000000,909.666199 1724.352173,921.845520 1723.896973,933.994690 
	C1723.476807,945.204895 1719.603516,954.062195 1708.248169,957.241028 
	C1706.547485,957.717102 1704.724976,957.967407 1702.958496,957.969177 
	C1662.626831,958.009155 1622.293823,957.836670 1581.964355,958.133240 
	C1573.568970,958.194946 1562.036499,948.800781 1562.020386,938.657410 
	C1561.966675,904.825562 1561.572632,870.985535 1562.206543,837.165405 
	C1562.467529,823.240356 1570.598633,813.233032 1583.052979,806.997009 
	C1628.055542,784.463440 1673.043213,761.899841 1718.131226,739.538574 
	C1721.988159,737.625793 1723.103516,735.472473 1723.100952,731.278687 
	C1722.984131,546.452942 1723.069458,361.627014 1722.801636,176.801559 
	C1722.787842,167.206436 1733.956421,154.768906 1744.832397,154.865677 
	C1783.494507,155.209656 1822.161377,154.995789 1860.826538,155.002335 
	C1873.961792,155.004562 1883.998291,165.104111 1883.998413,178.315552 
	C1884.000977,330.809357 1884.032349,483.303162 1883.947510,635.796936 
	C1883.939453,650.350342 1877.042847,661.381470 1864.129639,667.898438 
	C1819.200806,690.572876 1774.141113,712.988281 1729.060669,735.360352 
	C1725.376099,737.188843 1723.872803,739.190002 1723.887573,743.502380 
	C1724.062378,794.501099 1724.000000,845.500671 1724.000000,897.000000 
z"/>
<path fill="#0087B7" opacity="1.000000" stroke="none" 
	d="
M746.718079,410.312256 
	C730.889526,378.778809 715.279053,347.557587 699.500366,316.000000 
	C697.709351,316.000000 695.734253,316.000000 693.759155,316.000000 
	C509.427734,316.000000 325.096191,315.923187 140.765152,316.188232 
	C129.545364,316.204407 117.665207,304.395264 117.806877,293.386444 
	C118.304382,254.726578 118.273842,216.053192 117.824570,177.392166 
	C117.698212,166.518555 129.533722,154.811340 140.486130,154.829346 
	C293.484131,155.081085 446.482666,154.972397 599.481079,155.046814 
	C613.311279,155.053543 623.741028,161.674438 629.903442,173.893936 
	C653.547729,220.778763 676.904419,267.808624 700.476257,315.000000 
	C702.241211,315.000000 704.065430,315.000000 705.889648,315.000000 
	C769.722290,315.000000 833.555603,315.148254 897.387085,314.876068 
	C910.295715,314.821045 921.262451,325.574982 921.133057,338.781830 
	C920.757385,377.111084 921.003906,415.446381 920.997925,453.779327 
	C920.995789,467.518311 911.440857,476.996796 897.602173,476.998718 
	C866.602478,477.002960 835.602661,477.050995 804.603149,476.978668 
	C788.900513,476.942047 776.875916,470.396545 769.645630,456.153290 
	C761.969177,441.031158 754.497314,425.805176 746.718079,410.312256 
z"/>
<path fill="#0087B7" opacity="1.000000" stroke="none" 
	d="
M618.721497,951.782715 
	C612.396790,956.315613 605.718018,958.064331 598.261169,958.060425 
	C445.773621,957.979980 293.285889,957.919983 140.798645,958.158936 
	C129.166000,958.177185 117.694435,946.847290 117.830986,935.197693 
	C118.280182,896.872742 118.359795,858.533752 117.781197,820.212280 
	C117.607170,808.686157 128.873489,796.870544 141.179138,796.881958 
	C325.330688,797.052551 509.482452,796.980347 693.634094,797.112915 
	C698.253906,797.116272 700.278137,795.645874 702.309631,791.541565 
	C724.229431,747.257568 746.532410,703.163330 768.492065,658.898865 
	C776.224976,643.311401 788.600220,635.994141 805.711914,635.998047 
	C836.376099,636.005005 867.040466,635.935730 897.704285,636.038452 
	C907.128235,636.070068 914.490112,640.231384 918.781006,648.731384 
	C920.190735,651.523926 920.897583,654.972107 920.908813,658.124084 
	C921.048279,697.287048 921.018738,736.450745 920.989319,775.614197 
	C920.979675,788.456848 911.290955,797.991455 898.303894,797.994080 
	C834.142456,798.007019 769.980957,798.000000 705.819519,798.000000 
	C703.995422,798.000000 702.171326,798.000000 700.547607,798.000000 
	C676.952942,845.092834 653.610413,891.955261 629.888306,938.624817 
	C627.405090,943.510010 622.679199,947.255188 618.721497,951.782715 
z"/>
<path fill="#00BFB6" opacity="1.000000" stroke="none" 
	d="
M1401.000000,342.000000 
	C1401.000000,287.846161 1400.900024,234.191971 1401.077026,180.538712 
	C1401.116455,168.570831 1406.928711,158.765488 1418.959351,155.577515 
	C1420.519897,155.163971 1422.194702,155.024353 1423.816772,155.023102 
	C1462.640869,154.993423 1501.464844,155.014053 1540.288940,154.992111 
	C1553.277222,154.984772 1563.028320,166.143402 1563.025757,178.366425 
	C1562.988403,357.323669 1562.963745,536.280884 1563.068359,715.238098 
	C1563.076782,729.710022 1552.926880,738.754395 1539.686890,738.875916 
	C1501.532471,739.226318 1463.364990,739.450073 1425.219116,738.782166 
	C1409.526611,738.507385 1401.232422,730.613770 1401.136719,713.410461 
	C1400.789795,651.093933 1401.000000,588.774292 1401.000000,526.455872 
	C1401.000000,465.137238 1401.000000,403.818634 1401.000000,342.000000 
z"/>
<path fill="#0087B7" opacity="1.000000" stroke="none" 
	d="
M692.590942,632.766479 
	C688.018555,636.073547 683.310974,637.075867 678.010071,637.073242 
	C499.196503,636.985046 320.382690,636.897888 141.569672,637.230774 
	C129.700348,637.252869 117.517509,625.504211 117.742943,613.192444 
	C118.444527,574.876160 118.254845,536.536133 117.836082,498.211639 
	C117.718895,487.487244 129.512634,475.837555 140.162781,475.849945 
	C319.976074,476.059662 499.789703,476.044495 679.603088,475.882385 
	C689.712524,475.873260 700.990967,484.712341 700.995300,497.431824 
	C701.008423,536.094238 700.933838,574.756836 701.055969,613.418884 
	C701.080261,621.118530 698.625427,627.465637 692.590942,632.766479 
z"/>
</svg>