<?xml version="1.0" encoding="utf-8"?>
<!-- Generator: Adobe Illustrator 25.0.0, SVG Export Plug-In . SVG Version: 6.00 Build 0)  -->
<svg version="1.1" id="Laag_1" xmlns="http://www.w3.org/2000/svg" xmlns:xlink="http://www.w3.org/1999/xlink" x="0px" y="0px"
	 viewBox="0 0 106.77 143.07" style="enable-background:new 0 0 106.77 143.07;" xml:space="preserve">
<style type="text/css">
	.st0{fill:#006F3E;}
	.st1{clip-path:url(#SVGID_2_);fill:#006F3E;}
</style>
<g id="Calque_2">
	<g>
		<g>
			<g>
				<g>
					<path id="SVGID_3_" class="st0" d="M33.92,81.36L34,53.12c2.69-0.97,5.33-2,7.92-3.08v33.33L33.92,81.36z M63.3,39.37
						c2.83-1.67,5.58-3.4,8.24-5.18v47.4l-8.24,1.97V39.37z M0,73.43l52.75,13.25l54.02-12.92v-0.59l-14.05,3.36V32.94V17.01
						c3.72-3.68,8.48-9.06,14.05-16.09V0c-5.54,7.03-10.3,12.45-14.05,16.2V9.03c0-0.16-0.13-0.28-0.28-0.28l0,0
						c-0.16,0-0.28,0.13-0.28,0.28v7.74c-5.81,5.72-12.55,11.25-20.04,16.35V0.39c0-0.16-0.13-0.28-0.28-0.28s-0.28,0.13-0.28,0.28
						V33.5c-2.65,1.79-5.4,3.53-8.24,5.21V15.06c0-0.16-0.13-0.28-0.28-0.28l0,0c-0.16,0-0.28,0.13-0.28,0.28v23.92
						C56.97,42.25,50.27,45.63,42.52,49V27.28c0-0.16-0.13-0.28-0.28-0.28l0,0c-0.16,0-0.28,0.13-0.28,0.28v22.14
						c-2.6,1.08-5.24,2.12-7.92,3.09l0.1-35.22c0-0.16-0.13-0.28-0.28-0.28l0,0c-0.16,0-0.28,0.13-0.28,0.28l-0.14,35.44
						c-6.5,2.33-13.25,4.3-20.19,5.86V26.16c0-0.16-0.13-0.28-0.28-0.28l0,0c-0.16,0-0.28,0.13-0.28,0.28v32.56
						c-4.15,0.92-8.37,1.69-12.64,2.29v0.57c4.27-0.6,8.49-1.37,12.64-2.28v16.72L0.05,72.85L0,73.43z"/>
				</g>
				<g>
					<defs>
						<path id="SVGID_1_" d="M33.92,81.36L34,53.12c2.69-0.97,5.33-2,7.92-3.08v33.33L33.92,81.36z M63.3,39.37
							c2.83-1.67,5.58-3.4,8.24-5.18v47.4l-8.24,1.97V39.37z M0,73.43l52.75,13.25l54.02-12.92v-0.59l-14.05,3.36V32.94V17.01
							c3.72-3.68,8.48-9.06,14.05-16.09V0c-5.54,7.03-10.3,12.45-14.05,16.2V9.03c0-0.16-0.13-0.28-0.28-0.28l0,0
							c-0.16,0-0.28,0.13-0.28,0.28v7.74c-5.81,5.72-12.55,11.25-20.04,16.35V0.39c0-0.16-0.13-0.28-0.28-0.28s-0.28,0.13-0.28,0.28
							V33.5c-2.65,1.79-5.4,3.53-8.24,5.21V15.06c0-0.16-0.13-0.28-0.28-0.28l0,0c-0.16,0-0.28,0.13-0.28,0.28v23.92
							C56.97,42.25,50.27,45.63,42.52,49V27.28c0-0.16-0.13-0.28-0.28-0.28l0,0c-0.16,0-0.28,0.13-0.28,0.28v22.14
							c-2.6,1.08-5.24,2.12-7.92,3.09l0.1-35.22c0-0.16-0.13-0.28-0.28-0.28l0,0c-0.16,0-0.28,0.13-0.28,0.28l-0.14,35.44
							c-6.5,2.33-13.25,4.3-20.19,5.86V26.16c0-0.16-0.13-0.28-0.28-0.28l0,0c-0.16,0-0.28,0.13-0.28,0.28v32.56
							c-4.15,0.92-8.37,1.69-12.64,2.29v0.57c4.27-0.6,8.49-1.37,12.64-2.28v16.72L0.05,72.85L0,73.43z"/>
					</defs>
					<clipPath id="SVGID_2_">
						<use xlink:href="#SVGID_1_"  style="overflow:visible;"/>
					</clipPath>
					<rect x="-26.45" y="-18.53" class="st1" width="174.09" height="105.21"/>
				</g>
			</g>
		</g>
		<g>
			<path class="st0" d="M22.9,109.86v1.52c0,4.37-1.53,7.16-4.94,8.56c4.11,1.4,5.71,4.61,5.71,9.1v3.46
				c0,6.56-3.97,10.08-11.62,10.08H0v-42.49h11.55C19.49,100.09,22.9,103.31,22.9,109.86z M7.65,106.16v11.23h3
				c2.85,0,4.59-1.09,4.59-4.49v-2.37c0-3.04-1.18-4.37-3.9-4.37H7.65z M7.65,123.46v13.05h4.39c2.58,0,3.97-1.03,3.97-4.19v-3.7
				c0-3.95-1.46-5.16-4.94-5.16H7.65z"/>
			<path class="st0" d="M50.46,126.74v5.65c0,6.8-3.9,10.68-11.42,10.68c-7.52,0-11.42-3.88-11.42-10.68V110.3
				c0-6.8,3.9-10.68,11.42-10.68c7.52,0,11.42,3.88,11.42,10.68v4.13h-7.24v-4.55c0-3.04-1.53-4.19-3.97-4.19s-3.97,1.15-3.97,4.19
				v22.94c0,3.03,1.53,4.13,3.97,4.13s3.97-1.09,3.97-4.13v-6.07L50.46,126.74L50.46,126.74z"/>
			<path class="st0" d="M77.33,126.74v5.65c0,6.8-3.9,10.68-11.42,10.68s-11.42-3.88-11.42-10.68V110.3c0-6.8,3.9-10.68,11.42-10.68
				s11.42,3.88,11.42,10.68v4.13h-7.24v-4.55c0-3.04-1.53-4.19-3.97-4.19s-3.97,1.15-3.97,4.19v22.94c0,3.03,1.53,4.13,3.97,4.13
				s3.97-1.09,3.97-4.13v-6.07L77.33,126.74L77.33,126.74z"/>
			<path class="st0" d="M106.77,142.58h-7.73l-1.32-7.71h-9.4L87,142.58h-7.03l7.8-42.49h11.21L106.77,142.58z M89.3,129.1h7.38
				l-3.69-21.49L89.3,129.1z"/>
		</g>
	</g>
</g>
<g id="Calque_3">
</g>
</svg>
