<svg xmlns="http://www.w3.org/2000/svg" width="40" height="55" viewBox="0 0 40 55">
  <g fill="none" fill-rule="evenodd">
    <path fill="#51B848" d="M19.4299646,15.927656 C20.8875868,14.0160477 22.2644497,12.2102935 22.2644497,8.51620054 L22.2656665,-3.04178265e-05 L17.060568,-3.04178265e-05 L17.0595034,8.51620054 C17.0595034,10.4522952 16.541792,11.1312211 15.2910109,12.7716545 C13.6829725,14.8805224 11.2530445,18.067398 11.2530445,23.7464062 L11.2530445,25.6050875 L16.4579908,25.6050875 L16.4579908,23.7464062 C16.4579908,19.8253963 17.9689964,17.8439791 19.4299646,15.927656"/>
    <path fill="#00723F" d="M6.55549787,51.5804208 C6.30956974,51.8549417 6.01117086,52.0695395 5.66014915,52.2245183 C5.30927952,52.3794971 4.95369513,52.4572147 4.59385224,52.4572147 C3.94534418,52.4572147 3.41440102,52.2538715 3.00117485,51.8476414 C2.5876445,51.4414114 2.38110745,50.9212665 2.38110745,50.2869028 C2.38110745,49.606456 2.58505898,49.0568059 2.99311412,48.6381045 C3.40101718,48.2194031 3.93469794,48.0099764 4.59385224,48.0099764 C4.96449345,48.0099764 5.32159874,48.0866293 5.66547227,48.2397831 C6.00934579,48.3930889 6.3059196,48.6085992 6.55549787,48.8866181 L6.55549787,46.4440667 C6.29177531,46.2729664 5.97619036,46.1446032 5.60950346,46.0591291 C5.2423603,45.9735029 4.82730906,45.9309179 4.36404556,45.9309179 C3.15600158,45.9309179 2.15206122,46.3406461 1.35222447,47.1602544 C0.552235639,47.9797106 0.152089132,49.0076811 0.152089132,50.2441657 C0.152089132,51.4806504 0.551171015,52.5051228 1.34948687,53.3175829 C2.14765064,54.1300431 3.15250353,54.5362731 4.36404556,54.5362731 C4.81635864,54.5362731 5.22897646,54.4924715 5.60144274,54.4051723 C5.97375694,54.3180252 6.29177531,54.1905745 6.55549787,54.0232765 L6.55549787,51.5804208 Z M13.3318292,51.8237635 C12.9113027,52.2458108 12.3767094,52.4572147 11.7283534,52.4572147 C11.0763473,52.4572147 10.5390164,52.2467233 10.116817,51.826349 C9.69461756,51.4059746 9.48351784,50.8785295 9.48351784,50.2441657 C9.48351784,49.5994599 9.69279249,49.065627 10.1114939,48.6434276 C10.5301952,48.2210761 11.069047,48.0099764 11.7283534,48.0099764 C12.3732114,48.0099764 12.9068921,48.2239658 13.3292436,48.6513362 C13.751291,49.0790109 13.9625428,49.609954 13.9625428,50.2441657 C13.9625428,50.8748794 13.7522035,51.4014119 13.3318292,51.8237635 L13.3318292,51.8237635 Z M14.9111227,47.1762238 C14.0542525,46.3459692 12.9932787,45.9309179 11.7283534,45.9309179 C10.4669262,45.9309179 9.40595238,46.3468817 8.54543207,47.1789614 C7.68491176,48.0108889 7.25465161,49.0327758 7.25465161,50.2441657 C7.25465161,51.4593579 7.68308669,52.4783551 8.54010895,53.3014615 C9.39713121,54.1247199 10.459778,54.5362731 11.7283534,54.5362731 C12.9932787,54.5362731 14.0542525,54.1247199 14.9111227,53.3014615 C15.7682971,52.4783551 16.1967321,51.4593579 16.1967321,50.2441657 C16.1967321,49.0292777 15.7682971,48.0064783 14.9111227,47.1762238 L14.9111227,47.1762238 Z M20.7408512,49.6669875 C20.5235159,49.8237914 20.1546997,49.9021173 19.6344028,49.9021173 L19.3618591,49.9021173 L19.3618591,47.8549975 L19.6558474,47.8549975 C20.1580457,47.8549975 20.5191053,47.9369736 20.7381136,48.1009257 C20.957122,48.2647257 21.0669303,48.5267752 21.0669303,48.8866181 C21.0669303,49.2499591 20.9581866,49.5103357 20.7408512,49.6669875 L20.7408512,49.6669875 Z M22.4110941,46.7993469 C21.8177944,46.3379085 20.8851838,46.1073413 19.6129582,46.1073413 L17.2131438,46.1073413 L17.2131438,54.3598497 L19.3618591,54.3598497 L19.3618591,51.6552487 L19.7092306,51.6552487 C20.892332,51.6552487 21.7866161,51.425442 22.3923871,50.9656766 C22.9981581,50.5062153 23.3011197,49.8237914 23.3011197,48.9187089 C23.3011197,47.9672393 23.0043938,47.2610895 22.4110941,46.7993469 L22.4110941,46.7993469 Z M27.7080544,49.7900276 C27.4835708,49.9611279 27.1342221,50.0464499 26.6603123,50.0464499 L26.2702037,50.0464499 L26.2702037,47.8549975 L26.6977263,47.8549975 C27.1857803,47.8549975 27.5325435,47.9432092 27.7372555,48.1196326 C27.9422716,48.2959039 28.0447797,48.5873067 28.0447797,48.9935368 C28.0447797,49.3533797 27.9325379,49.6189273 27.7080544,49.7900276 L27.7080544,49.7900276 Z M28.4347363,51.0672721 C29.0336633,50.939061 29.4896265,50.6744259 29.8030822,50.2735189 C30.1168421,49.8727641 30.273646,49.3552047 30.273646,48.720841 C30.273646,47.8157586 30.0027752,47.1540187 29.4610337,46.7353174 C28.9194443,46.3167681 27.9786209,46.1073413 26.6390199,46.1073413 L24.1216406,46.1073413 L24.1216406,54.3598497 L26.2702037,54.3598497 L26.2702037,51.1528983 L28.1621925,54.3598497 L30.6903702,54.3598497 L28.4347363,51.0672721 Z M36.9895979,51.8237635 C36.5692235,52.2458108 36.0347823,52.4572147 35.3861221,52.4572147 C34.7342681,52.4572147 34.1970893,52.2467233 33.7747378,51.826349 C33.3523863,51.4059746 33.1414386,50.8785295 33.1414386,50.2441657 C33.1414386,49.5994599 33.3507133,49.065627 33.7694147,48.6434276 C34.188116,48.2210761 34.7268157,48.0099764 35.3861221,48.0099764 C36.0311321,48.0099764 36.5646608,48.2239658 36.9871644,48.6513362 C37.4093639,49.0790109 37.6204636,49.609954 37.6204636,50.2441657 C37.6204636,50.8748794 37.4101243,51.4014119 36.9895979,51.8237635 L36.9895979,51.8237635 Z M38.5691956,47.1762238 C37.7120212,46.3459692 36.6511995,45.9309179 35.3861221,45.9309179 C34.124847,45.9309179 33.0638732,46.3468817 32.2033529,47.1789614 C31.3428326,48.0108889 30.9124203,49.0327758 30.9124203,50.2441657 C30.9124203,51.4593579 31.3410075,52.4783551 32.1980297,53.3014615 C33.055052,54.1247199 34.1176988,54.5362731 35.3861221,54.5362731 C36.6511995,54.5362731 37.7120212,54.1247199 38.5691956,53.3014615 C39.4262178,52.4783551 39.8545008,51.4593579 39.8545008,50.2441657 C39.8545008,49.0292777 39.4262178,48.0064783 38.5691956,47.1762238 L38.5691956,47.1762238 Z"/>
    <path fill="#51B848" d="M22.7059493,40.021662 L17.5052614,40.021662 L17.5052614,23.7462998 C17.5052614,20.0519027 18.8809076,18.2464526 20.3373131,16.3348443 C21.7156969,14.525592 23.1404679,12.6558082 23.2936217,9.1372261 L23.3206936,8.51624617 L28.5195564,8.51624617 L28.4961346,9.18817595 C28.3121068,14.452285 26.0015687,17.4846381 24.4726166,19.4913021 C23.2232044,21.1315834 22.7059493,21.8105093 22.7059493,23.7462998 L22.7059493,40.021662 Z M18.8036463,38.7232771 L21.4075644,38.7232771 L21.4075644,23.7462998 C21.4075644,21.3721884 22.1724206,20.3679439 23.4397793,18.704393 C24.8017375,16.9168894 26.8272606,14.2589797 27.1615525,9.81463109 L24.5506384,9.81463109 C24.2452434,13.3478137 22.7228312,15.346417 21.3709109,17.1208409 C19.936102,19.0037044 18.8036463,20.4902235 18.8036463,23.7462998 L18.8036463,38.7232771 Z"/>
    <path fill="#51B848" d="M39.7876272,17.7712197 C39.7876272,8.38792857 32.5373862,0.703320983 23.3344728,6.08356529e-05 L23.3344728,5.81716597 C29.3327161,6.50035035 33.9928792,11.5903173 33.9928792,17.7712197 C33.9928792,23.769615 29.6034348,28.74004 23.8616138,29.6527269 L23.8616138,35.4894515 C32.8122113,34.538134 39.7876272,26.9741331 39.7876272,17.7712197"/>
    <path fill="#00723F" d="M15.9714273,4.53657547 C6.99908103,5.46690469 -6.08356529e-05,13.0409435 -6.08356529e-05,22.25937 C-6.08356529e-05,31.6426611 7.2500281,39.3271166 16.4529415,40.0303767 L16.4529415,34.2134237 C10.4550024,33.5302393 5.79468719,28.4402723 5.79468719,22.25937 C5.79468719,16.2450052 10.2077055,11.2651508 15.9714273,10.371475 L15.9714273,4.53657547 Z"/>
  </g>
</svg>
