<svg xmlns="http://www.w3.org/2000/svg" viewBox="0 0 96 80" fill="#2072b6">
	<path d="M33.896 54.83l.065-15.024 4.22-1.626v17.7l-4.286-1.04zm15.52-22.3l4.35-2.732v25.17L49.416 56V32.52zM79.74 1.756c-6.104 8.78-11.234 14.96-14.74 18.472V16.4a.14.14 0 0 0-.13-.13.14.14 0 0 0-.13.13v4.098c-3.052 3.057-6.623 5.984-10.65 8.715V11.837a.14.14 0 0 0-.13-.13.14.14 0 0 0-.13.13v17.56a99.25 99.25 0 0 1-4.351 2.797V19.577a.14.14 0 0 0-.13-.13.14.14 0 0 0-.13.13V32.26c-3.052 1.756-6.623 3.512-10.714 5.333V26.08a.14.14 0 0 0-.13-.13.14.14 0 0 0-.13.13v11.772c-1.364.585-2.792 1.106-4.22 1.626L33.96 20.81a.14.14 0 0 0-.13-.13.14.14 0 0 0-.13.13l-.064 18.79c-3.442 1.236-7.013 2.276-10.714 3.122V25.496a.14.14 0 0 0-.13-.13.14.14 0 0 0-.13.13v17.3c-5.974 1.3-12.143 2.08-18.506 2.08H2.013v.325H4.1c6.364 0 12.597-.715 18.506-2.08v8.846l-20.65-5.203v.325l41.3 10.407h1.234l49.1-11.772V45.4L65 52.228v-31.6c3.507-3.447 8.766-9.82 15.065-18.862h-.325zM29.416 69.92c-1.04-.4-1.883-.715-1.883-1.496 0-1.43 1.364-1.496 1.753-1.496.78 0 1.623.195 2.403.52l.195.065.26-2.276-.13-.065c-.844-.26-1.818-.455-2.922-.455-2.078 0-4.35.976-4.35 3.772 0 2.342 1.818 3.057 3.247 3.642 1.04.4 2.013.78 2.013 1.7 0 1.04-1.234 1.366-1.948 1.366-.844 0-1.753-.26-2.662-.715l-.195-.13-.26 2.537.4.065c1.04.26 1.623.4 2.857.4 2.922 0 4.6-1.366 4.6-3.772-.065-2.342-1.883-3.057-3.377-3.642zm7.922 2.015h4.286v-2.2h-4.286v-2.602h4.675v-2.2h-7.338v12.293h7.338v-2.2h-4.675V71.94zm15.52 2.797c-.52.26-1.623.455-2.532.455-2.338 0-3.896-1.7-3.896-4.098 0-2.47 1.558-4.228 3.83-4.228.714 0 1.558.065 2.532.585l.195.13.195-2.34-.13-.065c-.78-.325-1.818-.52-2.792-.52-4.22 0-6.688 2.47-6.688 6.57 0 3.902 2.468 6.114 6.688 6.114.78 0 1.688-.13 2.727-.4h.13l-.13-2.34-.13.13z"></path><path d="M60.065 64.716c-3.7 0-6.04 2.406-6.04 6.3s2.273 6.374 6.04 6.374c3.7 0 6.04-2.472 6.04-6.374s-2.338-6.3-6.04-6.3zm0 10.47c-2.338 0-3.182-2.146-3.182-4.228 0-1.886.844-4.098 3.182-4.098 2.403 0 3.182 2.2 3.182 4.098.065 2.08-.78 4.228-3.182 4.228zm5.065-22.958l-.065-23.1v-8.455l.065-.065v-.455l-.065.065V16.4a.14.14 0 0 0-.13-.13.14.14 0 0 0-.13.13v4.098c-3.052 3.057-6.623 5.984-10.65 8.715V11.837a.14.14 0 0 0-.13-.13.14.14 0 0 0-.13.13v17.56a99.34 99.34 0 0 1-4.351 2.797V19.577a.14.14 0 0 0-.13-.13.14.14 0 0 0-.13.13V32.26c-3.052 1.756-6.623 3.512-10.714 5.333V26.08a.14.14 0 0 0-.13-.13.14.14 0 0 0-.13.13v11.772c-1.364.585-2.792 1.106-4.22 1.626l-.13-18.667a.14.14 0 0 0-.13-.13.14.14 0 0 0-.13.13l-.064 18.79a92.77 92.77 0 0 1-10.714 3.122V25.496a.14.14 0 0 0-.13-.13.14.14 0 0 0-.13.13v17.3c-.065 0-.13 0-.13.065v.325c.065 0 .13 0 .13-.065v8.846l-.13-.065v.325l21.43 5.398 21.234-5.073v-.325h-.065zM38.117 55.87l-4.22-1.04.065-15.024a112.55 112.55 0 0 0 4.221-1.626v17.7h-.065zm15.714-.9L49.48 56V32.52l4.35-2.732v25.17z">
	</path>
<path d="M33.896 54.83l.065-15.024 4.22-1.626v17.7l-4.286-1.04zm15.52-22.3l4.35-2.732v25.17L49.416 56V32.52zM79.74 1.756c-6.104 8.78-11.234 14.96-14.74 18.472V16.4a.14.14 0 0 0-.13-.13.14.14 0 0 0-.13.13v4.098c-3.052 3.057-6.623 5.984-10.65 8.715V11.837a.14.14 0 0 0-.13-.13.14.14 0 0 0-.13.13v17.56a99.25 99.25 0 0 1-4.351 2.797V19.577a.14.14 0 0 0-.13-.13.14.14 0 0 0-.13.13V32.26c-3.052 1.756-6.623 3.512-10.714 5.333V26.08a.14.14 0 0 0-.13-.13.14.14 0 0 0-.13.13v11.772c-1.364.585-2.792 1.106-4.22 1.626L33.96 20.81a.14.14 0 0 0-.13-.13.14.14 0 0 0-.13.13l-.064 18.79c-3.442 1.236-7.013 2.276-10.714 3.122V25.496a.14.14 0 0 0-.13-.13.14.14 0 0 0-.13.13v17.3c-5.974 1.3-12.143 2.08-18.506 2.08H2.013v.325H4.1c6.364 0 12.597-.715 18.506-2.08v8.846l-20.65-5.203v.325l41.3 10.407h1.234l49.1-11.772V45.4L65 52.228v-31.6c3.507-3.447 8.766-9.82 15.065-18.862h-.325zM29.416 69.92c-1.04-.4-1.883-.715-1.883-1.496 0-1.43 1.364-1.496 1.753-1.496.78 0 1.623.195 2.403.52l.195.065.26-2.276-.13-.065c-.844-.26-1.818-.455-2.922-.455-2.078 0-4.35.976-4.35 3.772 0 2.342 1.818 3.057 3.247 3.642 1.04.4 2.013.78 2.013 1.7 0 1.04-1.234 1.366-1.948 1.366-.844 0-1.753-.26-2.662-.715l-.195-.13-.26 2.537.4.065c1.04.26 1.623.4 2.857.4 2.922 0 4.6-1.366 4.6-3.772-.065-2.342-1.883-3.057-3.377-3.642zm7.922 2.015h4.286v-2.2h-4.286v-2.602h4.675v-2.2h-7.338v12.293h7.338v-2.2h-4.675V71.94zm15.52 2.797c-.52.26-1.623.455-2.532.455-2.338 0-3.896-1.7-3.896-4.098 0-2.47 1.558-4.228 3.83-4.228.714 0 1.558.065 2.532.585l.195.13.195-2.34-.13-.065c-.78-.325-1.818-.52-2.792-.52-4.22 0-6.688 2.47-6.688 6.57 0 3.902 2.468 6.114 6.688 6.114.78 0 1.688-.13 2.727-.4h.13l-.13-2.34-.13.13z"></path><path d="M60.065 64.716c-3.7 0-6.04 2.406-6.04 6.3s2.273 6.374 6.04 6.374c3.7 0 6.04-2.472 6.04-6.374s-2.338-6.3-6.04-6.3zm0 10.47c-2.338 0-3.182-2.146-3.182-4.228 0-1.886.844-4.098 3.182-4.098 2.403 0 3.182 2.2 3.182 4.098.065 2.08-.78 4.228-3.182 4.228zm5.065-22.958l-.065-23.1v-8.455l.065-.065v-.455l-.065.065V16.4a.14.14 0 0 0-.13-.13.14.14 0 0 0-.13.13v4.098c-3.052 3.057-6.623 5.984-10.65 8.715V11.837a.14.14 0 0 0-.13-.13.14.14 0 0 0-.13.13v17.56a99.34 99.34 0 0 1-4.351 2.797V19.577a.14.14 0 0 0-.13-.13.14.14 0 0 0-.13.13V32.26c-3.052 1.756-6.623 3.512-10.714 5.333V26.08a.14.14 0 0 0-.13-.13.14.14 0 0 0-.13.13v11.772c-1.364.585-2.792 1.106-4.22 1.626l-.13-18.667a.14.14 0 0 0-.13-.13.14.14 0 0 0-.13.13l-.064 18.79a92.77 92.77 0 0 1-10.714 3.122V25.496a.14.14 0 0 0-.13-.13.14.14 0 0 0-.13.13v17.3c-.065 0-.13 0-.13.065v.325c.065 0 .13 0 .13-.065v8.846l-.13-.065v.325l21.43 5.398 21.234-5.073v-.325h-.065zM38.117 55.87l-4.22-1.04.065-15.024a112.55 112.55 0 0 0 4.221-1.626v17.7h-.065zm15.714-.9L49.48 56V32.52l4.35-2.732v25.17z"></path>
</svg>